<svg id="visual" viewBox="0 0 900 600" width="900" height="600" xmlns="http://www.w3.org/2000/svg" xmlns:xlink="http://www.w3.org/1999/xlink" version="1.1"><rect x="0" y="0" width="900" height="600" fill="#cad2c5"></rect><path d="M0 247L37.5 264.5C75 282 150 317 225 321.3C300 325.7 375 299.3 450 282.2C525 265 600 257 675 264.8C750 272.7 825 296.3 862.5 308.2L900 320L900 601L862.5 601C825 601 750 601 675 601C600 601 525 601 450 601C375 601 300 601 225 601C150 601 75 601 37.5 601L0 601Z" fill="#84a98c"></path><path d="M0 301L37.5 316.5C75 332 150 363 225 375.2C300 387.3 375 380.7 450 388.3C525 396 600 418 675 403.3C750 388.7 825 337.3 862.5 311.7L900 286L900 601L862.5 601C825 601 750 601 675 601C600 601 525 601 450 601C375 601 300 601 225 601C150 601 75 601 37.5 601L0 601Z" fill="#69917e"></path><path d="M0 466L37.5 464C75 462 150 458 225 468.8C300 479.7 375 505.3 450 517.3C525 529.3 600 527.7 675 523.7C750 519.7 825 513.3 862.5 510.2L900 507L900 601L862.5 601C825 601 750 601 675 601C600 601 525 601 450 601C375 601 300 601 225 601C150 601 75 601 37.5 601L0 601Z" fill="#52796f"></path></svg>